<svg preserveAspectRatio="none" width="100%" height="100%" overflow="visible" style="display: block;" viewBox="0 0 14.2006 14.8141" fill="none" xmlns="http://www.w3.org/2000/svg">
<g id="Search / E721 / Glyph: &#238;&#156;&#161;">
<path id="Vector" d="M9.1629 0.500029C9.57972 0.500029 9.98149 0.556238 10.3682 0.668658C10.755 0.781077 11.1159 0.940713 11.4511 1.14756C11.7863 1.35442 12.0914 1.60174 12.3664 1.88953C12.6414 2.17733 12.8799 2.49885 13.0818 2.85409C13.2838 3.20934 13.4363 3.58707 13.5395 3.98728C13.6426 4.38749 13.6963 4.80794 13.7006 5.24863C13.7006 5.68481 13.6469 6.10526 13.5395 6.50997C13.432 6.91468 13.2795 7.29241 13.0818 7.64316C12.8842 7.99391 12.6478 8.31318 12.3728 8.60097C12.0978 8.88877 11.7906 9.13834 11.4511 9.34969C11.1116 9.56104 10.7507 9.72067 10.3682 9.82859C9.98579 9.93652 9.58401 9.99273 9.1629 9.99722C8.62577 9.99722 8.11227 9.90279 7.6224 9.71393C7.13253 9.52506 6.67919 9.25301 6.26238 8.89776L1.20257 14.186C1.12093 14.2714 1.02424 14.3141 0.912519 14.3141C0.800795 14.3141 0.704111 14.2714 0.622467 14.186C0.540822 14.1005 0.5 13.9994 0.5 13.8824C0.5 13.7655 0.540822 13.6643 0.622467 13.5789L5.67583 8.28395C5.33636 7.85226 5.07638 7.3801 4.89591 6.86747C4.71543 6.35483 4.62519 5.81522 4.62519 5.24863C4.62519 4.81244 4.6789 4.39199 4.78633 3.98728C4.89376 3.58257 5.0463 3.20484 5.24397 2.85409C5.44164 2.50334 5.67797 2.18407 5.95299 1.89628C6.228 1.60848 6.53524 1.35891 6.87471 1.14756C7.21418 0.936216 7.57513 0.77658 7.95757 0.668658C8.34001 0.560735 8.74179 0.504525 9.1629 0.500029ZM9.1629 9.13384C9.67425 9.13384 10.1555 9.03266 10.6067 8.83031C11.0579 8.62795 11.4511 8.34915 11.7863 7.99391C12.1214 7.63866 12.3857 7.22721 12.5791 6.75954C12.7724 6.29188 12.8713 5.78824 12.8756 5.24863C12.8756 4.71351 12.7789 4.20987 12.5855 3.73771C12.3922 3.26555 12.1257 2.85409 11.7863 2.50334C11.4468 2.15259 11.0536 1.87604 10.6067 1.67369C10.1598 1.47133 9.67855 1.36791 9.1629 1.36341C8.65155 1.36341 8.17028 1.46459 7.71908 1.66694C7.26789 1.8693 6.87471 2.1481 6.53954 2.50334C6.20437 2.85859 5.9401 3.27004 5.74673 3.73771C5.55336 4.20537 5.45453 4.70901 5.45023 5.24863C5.45023 5.78374 5.54691 6.28738 5.74028 6.75954C5.93365 7.23171 6.20007 7.64316 6.53954 7.99391C6.87901 8.34466 7.27219 8.62121 7.71908 8.82356C8.16598 9.02592 8.64725 9.12935 9.1629 9.13384Z" fill="var(--fill-0, #93BD0E)" stroke="var(--stroke-0, #93BD0E)"/>
</g>
</svg>
