<svg preserveAspectRatio="none" width="100%" height="100%" overflow="visible" style="display: block;" viewBox="0 0 34 24.2737" fill="none" xmlns="http://www.w3.org/2000/svg">
<g id="Group">
<path id="Vector" d="M0 0V0.611943V21.418H21.906V24.2737L25.1007 22.8459L28.2953 24.2737V21.418H34V0H0ZM1.14094 1.0199H32.6309V20.1941H28.0671V17.9503C28.9799 17.1344 29.4362 16.1145 29.4362 15.0946C29.4362 12.8508 27.3825 11.015 24.8725 11.015C22.3624 11.015 20.3087 12.8508 20.3087 15.0946C20.3087 16.3185 20.7651 17.3384 21.6779 17.9503V20.1941H1.14094V1.0199ZM5.02013 6.11943V7.13933H5.7047H13.2349H13.6913V6.11943H13.0067H5.7047H5.02013ZM5.02013 9.99506V11.015H5.7047H17.5705H18.255V9.99506H17.3423H5.7047H5.02013ZM24.8725 12.0349C26.698 12.0349 28.0671 13.2588 28.0671 14.8906C28.0671 15.7065 27.6107 16.5225 27.1544 16.9304L26.9262 17.1344C26.698 17.3384 26.2416 17.5424 26.0134 17.7463C25.7852 17.7463 25.557 17.9503 25.557 17.9503C25.3289 17.9503 25.1007 17.9503 24.8725 17.9503C24.6443 17.9503 24.4161 17.9503 24.4161 17.9503C23.7315 17.9503 23.2752 17.5424 22.8188 17.3384C22.1342 16.7264 21.6779 15.9105 21.6779 15.0946C21.6779 13.4627 23.047 12.0349 24.8725 12.0349ZM5.02013 14.0747V15.0946H5.7047H17.5705H18.255V14.0747H17.3423H5.7047H5.02013ZM23.047 18.5623C23.7315 18.7662 24.1879 18.9702 25.1007 18.9702C25.7852 18.9702 26.4698 18.7662 27.1544 18.5623V22.4379L25.1007 21.622L23.047 22.4379V21.214V18.5623Z" fill="var(--fill-0, #575451)"/>
</g>
</svg>
