<svg preserveAspectRatio="none" width="100%" height="100%" overflow="visible" style="display: block;" viewBox="0 0 34 34.0001" fill="none" xmlns="http://www.w3.org/2000/svg">
<g id="Group 545">
<path id="Vector" d="M30.2222 17.8623V7.17809C30.2213 6.37683 29.9026 5.60866 29.336 5.04209C28.7694 4.47551 28.0012 4.15682 27.2 4.1559H25.3111V2.26666C25.3111 1.66551 25.0723 1.08897 24.6472 0.663891C24.2221 0.238809 23.6456 0 23.0444 0C22.4433 0 21.8667 0.238809 21.4416 0.663891C21.0166 1.08897 20.7778 1.66551 20.7778 2.26666V4.1559H9.44444V2.26666C9.44444 1.66551 9.20563 1.08897 8.78055 0.663891C8.35546 0.238809 7.77893 0 7.17777 0C6.57661 0 6.00008 0.238809 5.575 0.663891C5.14991 1.08897 4.91111 1.66551 4.91111 2.26666V4.1559H3.02222C2.22096 4.15682 1.45278 4.47551 0.886207 5.04209C0.319629 5.60866 0.000920878 6.37683 0 7.17809V27.2001C0.000920878 28.0013 0.319629 28.7695 0.886207 29.3361C1.45278 29.9027 2.22096 30.2214 3.02222 30.2223H17.8621C18.6058 31.2825 19.5726 32.1672 20.6946 32.814C21.8166 33.4609 23.0666 33.8543 24.3568 33.9667C25.6471 34.079 26.9462 33.9076 28.1631 33.4644C29.3801 33.0212 30.4852 32.317 31.401 31.4012C32.3168 30.4854 33.021 29.3803 33.4642 28.1634C33.9074 26.9465 34.0789 25.6473 33.9665 24.3571C33.8542 23.0669 33.4608 21.8169 32.8139 20.6949C32.1671 19.5729 31.2825 18.6061 30.2222 17.8623V17.8623ZM22.2889 2.26666C22.2889 2.06628 22.3685 1.8741 22.5102 1.73241C22.6519 1.59071 22.844 1.51111 23.0444 1.51111C23.2448 1.51111 23.437 1.59071 23.5787 1.73241C23.7204 1.8741 23.8 2.06628 23.8 2.26666V6.42218C23.8 6.62256 23.7204 6.81474 23.5787 6.95643C23.437 7.09813 23.2448 7.17773 23.0444 7.17773C22.844 7.17773 22.6519 7.09813 22.5102 6.95643C22.3685 6.81474 22.2889 6.62256 22.2889 6.42218V2.26666ZM6.42222 2.26666C6.42222 2.06628 6.50182 1.8741 6.64351 1.73241C6.78521 1.59071 6.97739 1.51111 7.17777 1.51111C7.37816 1.51111 7.57033 1.59071 7.71203 1.73241C7.85372 1.8741 7.93333 2.06628 7.93333 2.26666V6.42218C7.93333 6.62256 7.85372 6.81474 7.71203 6.95643C7.57033 7.09813 7.37816 7.17773 7.17777 7.17773C6.97739 7.17773 6.78521 7.09813 6.64351 6.95643C6.50182 6.81474 6.42222 6.62256 6.42222 6.42218V2.26666ZM3.02222 5.66699H4.91111V6.42217C4.91111 7.02333 5.14991 7.59986 5.575 8.02495C6.00008 8.45003 6.57661 8.68884 7.17777 8.68884C7.77893 8.68884 8.35546 8.45003 8.78055 8.02495C9.20563 7.59986 9.44444 7.02333 9.44444 6.42217V5.66699H20.7778V6.42217C20.7778 7.02333 21.0166 7.59986 21.4416 8.02495C21.8667 8.45003 22.4433 8.68884 23.0444 8.68884C23.6456 8.68884 24.2221 8.45003 24.6472 8.02495C25.0723 7.59986 25.3111 7.02333 25.3111 6.42217V5.66699H27.2C27.6006 5.66745 27.9847 5.8268 28.268 6.11009C28.5513 6.39338 28.7106 6.77747 28.7111 7.1781V10.9555H1.51111V7.17809C1.51157 6.77746 1.67092 6.39337 1.95421 6.11009C2.2375 5.8268 2.62159 5.66745 3.02222 5.66699V5.66699ZM3.02222 28.7112C2.62159 28.7107 2.2375 28.5514 1.95421 28.2681C1.67092 27.9848 1.51157 27.6007 1.51111 27.2001V12.4665H28.7111V17.0052C27.073 16.2794 25.2536 16.0665 23.4922 16.3946C21.7308 16.7227 20.11 17.5763 18.8431 18.8432C17.5762 20.1101 16.7225 21.7309 16.3945 23.4923C16.0664 25.2537 16.2792 27.0731 17.005 28.7112H3.02222ZM25.1222 32.4889C23.6652 32.4889 22.241 32.0568 21.0296 31.2474C19.8181 30.4379 18.874 29.2874 18.3164 27.9413C17.7589 26.5952 17.613 25.1141 17.8973 23.6851C18.1815 22.2561 18.8831 20.9435 19.9134 19.9133C20.9436 18.8831 22.2562 18.1815 23.6852 17.8973C25.1141 17.613 26.5953 17.7589 27.9414 18.3165C29.2874 18.874 30.4379 19.8182 31.2474 21.0297C32.0568 22.2411 32.4889 23.6654 32.4889 25.1223C32.4866 27.0754 31.7098 28.9478 30.3288 30.3289C28.9477 31.7099 27.0753 32.4867 25.1222 32.4889V32.4889Z" fill="var(--fill-0, #00A2B5)"/>
<path id="Vector_2" d="M30.6227 22.0945C30.5701 22.0419 30.5076 22.0002 30.4389 21.9717C30.3701 21.9432 30.2964 21.9285 30.222 21.9285C30.1476 21.9285 30.0739 21.9432 30.0052 21.9717C29.9364 22.0002 29.874 22.0419 29.8214 22.0945L24.2119 27.704L21.7104 25.2025C21.6578 25.1499 21.5953 25.1082 21.5266 25.0797C21.4579 25.0512 21.3842 25.0365 21.3098 25.0365C21.2354 25.0365 21.1617 25.0512 21.0929 25.0797C21.0242 25.1081 20.9617 25.1499 20.9091 25.2025C20.8565 25.2551 20.8148 25.3176 20.7863 25.3863C20.7578 25.4551 20.7432 25.5287 20.7432 25.6031C20.7432 25.6776 20.7578 25.7512 20.7863 25.82C20.8148 25.8887 20.8565 25.9512 20.9091 26.0038L23.8113 28.9059C23.8639 28.9585 23.9263 29.0003 23.9951 29.0287C24.0638 29.0572 24.1375 29.0719 24.2119 29.0719C24.2863 29.0719 24.36 29.0572 24.4287 29.0287C24.4975 29.0003 24.5599 28.9585 24.6126 28.9059L30.6227 22.8958C30.6753 22.8432 30.7171 22.7808 30.7455 22.712C30.774 22.6433 30.7887 22.5696 30.7887 22.4952C30.7887 22.4208 30.774 22.3471 30.7455 22.2783C30.7171 22.2096 30.6753 22.1471 30.6227 22.0945V22.0945Z" fill="var(--fill-0, #00A2B5)"/>
</g>
</svg>
